<?xml version="1.0" standalone="no"?>
<!DOCTYPE svg PUBLIC "-//W3C//DTD SVG 20010904//EN"
 "http://www.w3.org/TR/2001/REC-SVG-20010904/DTD/svg10.dtd">
<svg version="1.0" xmlns="http://www.w3.org/2000/svg"
 width="700.000000pt" height="700.000000pt" viewBox="0 0 700.000000 700.000000"
 preserveAspectRatio="xMidYMid meet">
<metadata>
Created by potrace 1.14, written by Peter Selinger 2001-2017
</metadata>
<g transform="translate(0.000000,700.000000) scale(0.100000,-0.100000)"
fill="#000000" stroke="none">
<path d="M0 3500 l0 -3500 3500 0 3500 0 0 3500 0 3500 -3500 0 -3500 0 0
-3500z m5341 1401 c297 -65 508 -179 723 -393 65 -65 117 -120 115 -122 -2 -2
-62 0 -134 5 -1201 75 -2777 9 -3990 -167 -164 -23 -564 -89 -615 -101 -161
-37 584 220 1005 347 703 211 1303 345 1855 414 304 38 409 45 690 41 213 -2
271 -6 351 -24z m736 -692 l232 -12 41 -90 c77 -166 115 -308 130 -493 23
-292 -46 -608 -188 -851 -70 -120 -160 -235 -180 -229 -9 3 -93 21 -187 40
-1427 296 -2765 478 -4435 606 -151 12 -276 23 -278 25 -5 4 -42 262 -42 290
0 18 22 28 153 72 1087 367 2241 586 3387 643 118 6 256 12 305 14 171 6 831
-3 1062 -15z m-2057 -1629 c763 -22 1330 -74 1760 -160 215 -43 207 -35 103
-109 -95 -68 -268 -157 -373 -192 -210 -69 -475 -100 -692 -80 -155 14 -225
28 -633 126 -581 139 -1096 238 -1799 345 -110 16 -202 32 -204 35 -3 3 13 5
36 5 23 0 119 5 214 11 429 26 1074 34 1588 19z"/>
</g>
</svg>
