<svg width="23px" height="23px" viewBox="0 0 23 23" version="1.1" xmlns="http://www.w3.org/2000/svg" xmlns:xlink="http://www.w3.org/1999/xlink">
    <g id="Symbols---Mastheads---Footers" stroke="none" stroke-width="1" fill="none" fill-rule="evenodd">
        <g id="1280-Up-Masthead-Tourn" transform="translate(-1048.000000, -16.000000)" fill="#888B8D">
            <g id="Search-Icon" transform="translate(1048.000000, 16.000000)">
                <g id="Fill-1">
                    <path d="M13.3766554,16.0861594 C9.44971776,16.0861594 6.25453056,12.8909722 6.25453056,8.96495616 C6.25453056,5.03801856 9.44971776,1.84283136 13.3766554,1.84283136 C17.303593,1.84283136 20.4987802,5.03801856 20.4987802,8.96495616 C20.4987802,12.8909722 17.303593,16.0861594 13.3766554,16.0861594 M13.3766554,-0.00036864 C8.43319296,-0.00036864 4.41133056,4.02149376 4.41133056,8.96495616 C4.41133056,11.0477722 5.13202176,12.9619354 6.32918016,14.4862618 L0.26966016,20.5457818 C-0.08976384,20.9052058 -0.08976384,21.4885786 0.26966016,21.8489242 C0.45029376,22.0286362 0.68530176,22.118953 0.92123136,22.118953 C1.15716096,22.118953 1.39309056,22.0286362 1.57280256,21.8489242 L7.60559616,15.815209 C9.16770816,17.1321754 11.179561,17.9293594 13.3766554,17.9293594 C18.3201178,17.9293594 22.3419802,13.9084186 22.3419802,8.96495616 C22.3419802,4.02149376 18.3201178,-0.00036864 13.3766554,-0.00036864"></path>
                </g>
            </g>
        </g>
    </g>
</svg>